<svg xmlns="http://www.w3.org/2000/svg" viewBox="0 0 108.42 90.99"><defs><style>.cls-1{fill:#fff;}.cls-2{fill:#1c203c;}</style></defs><g id="Layer_2" data-name="Layer 2"><g id="레이어_1" data-name="레이어 1"><path class="cls-1" d="M54.21,0C24.27,0,0,19.86,0,44.35,0,56.56,6,67.6,15.77,75.62,13.56,79.68,10,84.78,4.93,87.47c-8.08,4.31,11,6.27,24.18-3.81a63.71,63.71,0,0,0,25.1,5c29.94,0,54.21-19.86,54.21-44.36S84.15,0,54.21,0Z"/><path class="cls-2" d="M19.66,35.09H14.47a1.5,1.5,0,0,1-1.36-.71,2.84,2.84,0,0,1-.45-1.56,2.89,2.89,0,0,1,.45-1.56,1.54,1.54,0,0,1,1.39-.71H30a1.56,1.56,0,0,1,1.39.71,2.89,2.89,0,0,1,.45,1.56,2.84,2.84,0,0,1-.45,1.56,1.51,1.51,0,0,1-1.37.71H24.8V53.47a1.32,1.32,0,0,1-.39,1,2.44,2.44,0,0,1-.95.57,4.06,4.06,0,0,1-1.23.18A3.69,3.69,0,0,1,21,55a2.36,2.36,0,0,1-.95-.59,1.38,1.38,0,0,1-.39-1Z"/><path class="cls-2" d="M39.54,32.51a2.76,2.76,0,0,1,.73-1.12,3.83,3.83,0,0,1,.86-.58,3,3,0,0,1,1-.26H43.4a3,3,0,0,1,1,.26,3.38,3.38,0,0,1,.85.58A3.12,3.12,0,0,1,46,32.51L54,52.79a1.14,1.14,0,0,1,0,1,2,2,0,0,1-.7.78,3.63,3.63,0,0,1-1.13.5,4.91,4.91,0,0,1-1.24.16A2.66,2.66,0,0,1,49.74,55a1.27,1.27,0,0,1-.69-.71l-1.93-5.13H38.47L36.6,54.07a1.55,1.55,0,0,1-.7.81,3.1,3.1,0,0,1-1.13.32,3.76,3.76,0,0,1-1.29-.1,3.46,3.46,0,0,1-1.14-.47,1.91,1.91,0,0,1-.71-.76,1.21,1.21,0,0,1,0-1Zm.66,12.05h5.19L42.78,37.7Z"/><path class="cls-2" d="M59.17,55.23a2.1,2.1,0,0,1-1.3-.35,2.38,2.38,0,0,1-.68-.79A2.78,2.78,0,0,1,56.9,53V32.37a1.37,1.37,0,0,1,.38-1,2.41,2.41,0,0,1,.95-.6,4,4,0,0,1,2.47,0,2.15,2.15,0,0,1,.95.58,1.3,1.3,0,0,1,.39,1V50.69h9.41a1.53,1.53,0,0,1,1.39.71,2.88,2.88,0,0,1,0,3.12,1.5,1.5,0,0,1-1.36.71Z"/><path class="cls-2" d="M92.75,52.39a1.65,1.65,0,0,1,.46,1.15,1.37,1.37,0,0,1-.47.89,2.73,2.73,0,0,1-1.07.57,5.53,5.53,0,0,1-1.36.23A4,4,0,0,1,89,55.07a2.14,2.14,0,0,1-1-.61l-7.49-8.85V53.5a1.35,1.35,0,0,1-.38,1,2.51,2.51,0,0,1-1,.57,4.06,4.06,0,0,1-1.23.18,3.79,3.79,0,0,1-1.24-.2,2.34,2.34,0,0,1-1-.6,1.37,1.37,0,0,1-.38-1V32.34a1.37,1.37,0,0,1,.38-1,2.45,2.45,0,0,1,1-.6,3.79,3.79,0,0,1,1.24-.2,4.06,4.06,0,0,1,1.23.19,2.3,2.3,0,0,1,1,.58,1.37,1.37,0,0,1,.38,1v6.78l7.46-7.94a1.73,1.73,0,0,1,1.56-.55,3.16,3.16,0,0,1,1.6.68,3.1,3.1,0,0,1,1,1.32A1.27,1.27,0,0,1,91.79,34L83.9,42.24Z"/></g></g></svg>