<svg xmlns="http://www.w3.org/2000/svg" viewBox="0 0 106.83 76.53"><defs><style>.cls-1{fill:#fff;}.cls-2{fill:#1c203c;}</style></defs><g id="Layer_2" data-name="Layer 2"><g id="레이어_1" data-name="레이어 1"><rect class="cls-1" width="106.83" height="76.53" rx="14.01"/><path class="cls-2" d="M53.41,43.26a3.5,3.5,0,0,1-2-.61L13.19,16.41a3.5,3.5,0,0,1,4-5.78L53.42,35.52,89.84,10.63a3.5,3.5,0,0,1,4,5.78L55.39,42.65A3.5,3.5,0,0,1,53.41,43.26Z"/><path class="cls-2" d="M12.76,66.46a3.5,3.5,0,0,1-1.95-6.41L36.47,42.86a3.5,3.5,0,0,1,3.9,5.81L14.7,65.87A3.45,3.45,0,0,1,12.76,66.46Z"/><path class="cls-2" d="M94.07,66.46a3.51,3.51,0,0,1-1.95-.59L66.46,48.67a3.5,3.5,0,1,1,3.9-5.81L96,60.05a3.5,3.5,0,0,1-2,6.41Z"/></g></g></svg>